<svg xmlns="http://www.w3.org/2000/svg" viewBox="1780.578 -1285.455 439.668 318.675">
  <defs>
    <style>
      .cls-1 {
        fill: #96dfe8;
      }

      .cls-2 {
        fill: rgba(255,255,255,0.54);
      }
    </style>
  </defs>
  <g id="background" transform="translate(1801 -1310)">
    <path id="Path_77" data-name="Path 77" class="cls-1" d="M1356,345.5s33.255,8.566,72-5.5c35.259-12.8,74.079-32.345,120-32,44.674.336,86.615,19.555,120,32,37.633,14.028,63.634,5.5,63.634,5.5,0-34.974-.853-308.955-.853-308.955H1356Z" transform="translate(-1356 -12)"/>
    <path id="Path_86" data-name="Path 86" class="cls-2" d="M1488.12,339.688s-61.047-33.634-106.275-8.367c-10.664,5.957-37.989,16.766-46.267,31.644,11.985,5.574,59.548,2.683,87.324-2.358C1455.487,354.694,1488.12,339.688,1488.12,339.688Z" transform="translate(-1356 -26.173)"/>
    <path id="Path_87" data-name="Path 87" class="cls-2" d="M1335.578,342.669s71.285-39.274,124.1-9.77c12.453,6.956,44.36,19.578,54.027,36.951-13.995,6.509-69.535,3.133-101.969-2.753C1373.684,360.192,1335.578,342.669,1335.578,342.669Z" transform="translate(-1094.458 -30.173)"/>
  </g>
</svg>
